<svg width="284" height="81" viewBox="0 0 284 81" fill="none" xmlns="http://www.w3.org/2000/svg">
<path d="M152.705 81V0H185.776C194.062 0 200.351 2.60559 204.642 7.81678C208.193 12.0462 209.969 17.1818 209.969 23.2238C209.969 30.7762 207.824 36.6294 203.532 40.7832C199.241 44.9371 192.842 47.014 184.333 47.014H162.693V81H152.705ZM162.693 8.83637V38.7441H183.557C189.031 38.7441 193.138 37.4224 195.875 34.779C198.686 32.1357 200.092 28.435 200.092 23.6769C200.092 18.8434 198.686 15.1804 195.875 12.6881C193.138 10.1203 189.216 8.83637 184.111 8.83637H162.693Z" fill="black"/>
<path d="M76.3524 0H85.8964V81H76.3524V0Z" fill="black"/>
<path d="M0 0H9.54405V81H0V0Z" fill="black"/>
<path d="M128.845 0H138.389V81H128.845V0Z" fill="black"/>
<path d="M52.4923 0H62.0363V81H52.4923V0Z" fill="black"/>
<path d="M221.899 0H231.443V81H221.899V0Z" fill="black"/>
<path d="M274.391 0H283.935V81H274.391V0Z" fill="black"/>
<path d="M76.3524 33.3529H138.389V42.8824H76.3524V33.3529Z" fill="black"/>
<path d="M0 33.3529H62.0363V42.8824H0V33.3529Z" fill="black"/>
<path d="M221.899 33.3529H283.935V42.8824H221.899V33.3529Z" fill="black"/>
<path d="M221.899 0H283.935V9.52941H221.899V0Z" fill="black"/>
<path d="M76.3524 0H138.389V9.52941H76.3524V0Z" fill="black"/>
</svg>
