<svg width="61" height="81" viewBox="0 0 61 81" fill="none" xmlns="http://www.w3.org/2000/svg">
<circle cx="30.375" cy="10.125" r="10.125" fill="black"/>
<circle cx="30.375" cy="50.625" r="10.125" fill="black"/>
<path d="M48.6 50.625C48.6 40.5 40.5 40.5 40.5 30.375C40.5 25.3125 44.55 20.25 50.625 20.25C56.7 20.25 60.75 25.3125 60.75 30.375C60.75 40.5 52.65 40.5 52.65 50.625C52.65 60.75 60.75 60.75 60.75 70.875C60.75 75.9375 56.7 81 50.625 81C44.55 81 40.5 75.9375 40.5 70.875C40.5 60.75 48.6 60.75 48.6 50.625Z" fill="black"/>
<path d="M8.1 50.625C8.1 40.5 0 40.5 0 30.375C0 25.3125 4.05 20.25 10.125 20.25C16.2 20.25 20.25 25.3125 20.25 30.375C20.25 40.5 12.15 40.5 12.15 50.625C12.15 60.75 20.25 60.75 20.25 70.875C20.25 75.9375 16.2 81 10.125 81C4.05 81 0 75.9375 0 70.875C0 60.75 8.1 60.75 8.1 50.625Z" fill="black"/>
</svg>
